# xmcd
#
# Track frame offsets:
#	150
#	18670
#	37100
#	56142
#	74955
#	91017
#	110135
#	130712
#	148567
#	166100
#	183102
#	201816
#	217305
#
# Disc length: 3167 seconds
#
# Revision: 0
# Processed by: cddbd v1.5.2PL0 Copyright (c) Steve Scherf et al.
# Submitted via: audiograbber 1.83.01
#
DISCID=c80c5d0d
DTITLE=Heather Nova - South [CD-R]
DYEAR=1999
DGENRE=Singer/Songwriter
TTITLE0=If I Saw You In A Movie
TTITLE1=Talk To Me
TTITLE2=Virus Of The Mind
TTITLE3=Like Lovers Do
TTITLE4=Waste The Day
TTITLE5=Heaven Sent
TTITLE6=It's Only Love
TTITLE7=I'm No Angel
TTITLE8=Help Me Be Good To You
TTITLE9=When Somebody Turns You On
TTITLE10=*Gloomy Sunday
TTITLE11=Tested
TTITLE12=Just Been Born
EXTD=
EXTT0=
EXTT1=
EXTT2=
EXTT3=
EXTT4=
EXTT5=
EXTT6=
EXTT7=
EXTT8=
EXTT9=
EXTT10=
EXTT11=
EXTT12=
PLAYORDER=
